<svg
  viewBox="0 0 210 88"
  xmlns="http://www.w3.org/2000/svg"
>
  <g fillRule="nonzero" fill="none">
    <path
      d="M195.879 36.513h-39.244c-3.934-5.418-10.733-8.391-19.221-8.391.544-2.487.818-4.81.818-6.918 0-6.543-1.878-11.928-5.435-15.572-3.06-3.14-7.214-4.87-11.692-4.87s-8.878 1.72-12.546 4.991C105.5 2.568 101.26.762 96.764.762c-3.925 0-7.585 1.218-10.877 3.621-3.947 2.883-7.242 7.44-9.797 13.552-.035-4.555-1.848-8.704-5.112-11.7-3.202-2.939-7.602-4.555-12.393-4.555A22.62 22.62 0 0 0 50.11 3.3C46.306 1.84 40.532 0 33.129 0c-8.866 0-16.488 2.598-22.04 7.51-5.529 4.894-8.574 11.711-8.574 19.194 0 5.708 1.792 11.201 5.062 15.585a23.05 23.05 0 0 0-1.893 2.038C2.019 48.793 0 54.655 0 60.837c0 7.891 3.174 15.014 8.939 20.058C14.174 85.475 21.169 88 28.633 88c6.039 0 11.58-1.352 16.465-4.018 4.405-2.403 8.075-5.763 10.915-9.995 2.822 1.327 6.059 2.023 9.427 2.023 4.606 0 9.082-1.208 12.993-3.501 4.053 3.032 8.456 3.5 10.784 3.5 4.428 0 8.617-1.477 12.468-4.398 3.202 2.88 7.287 4.399 11.873 4.399 4.312 0 8.4-1.33 11.864-3.852 2.9 1.325 6.2 2.023 9.59 2.023.106 0 .212-.002.313-.005h21.207a14.12 14.12 0 0 0 8.71-3.042 14.404 14.404 0 0 0 4.57-6.31h26.061c7.789 0 14.127-6.348 14.127-14.154s-6.336-14.154-14.127-14.154l.006-.003zm0 24.377h-29.18c-.44 5.238-4.82 9.352-10.162 9.352h-21.18c-.113 0-.226.007-.342.007-3.79 0-7.234-.989-10.059-2.817-3.864 3.718-8.115 4.646-11.395 4.646-4.901 0-8.863-2.137-11.529-6.005-3.886 3.957-8.216 6.005-12.815 6.005-2.313 0-6.867-.57-10.424-4.55-3.826 2.97-8.384 4.55-13.353 4.55-4.21 0-7.892-1.216-10.787-3.534-4.93 9.781-14.234 15.524-26.022 15.524-6.515 0-12.594-2.18-17.115-6.134C6.618 73.65 3.922 67.578 3.922 60.84c0-5.271 1.701-10.247 4.79-14.01a18.082 18.082 0 0 1 4.612-4.02 19.434 19.434 0 0 1-1.312-1.307c-3.597-3.927-5.576-9.18-5.576-14.795 0-6.34 2.576-12.109 7.248-16.245 4.822-4.27 11.546-6.527 19.442-6.527 6.724 0 12.199 1.636 17.064 3.636a18.646 18.646 0 0 1 8.39-1.957c7.87 0 13.583 5.241 13.583 12.465 0 5.127-2.615 8.752-6.22 10.78 1.455.241 2.895.562 4.287.983 2.13.646 4.01 1.498 5.646 2.545.826-4.058 2.006-8.475 3.693-12.596C84.676 7.32 91.737 4.7 96.76 4.7c4.201 0 8.888 2.058 11.39 7.334 2.94-3.967 7.147-7.334 12.952-7.334 6.089 0 13.2 4.323 13.2 16.51 0 3.407-.859 7.473-2.329 11.634a19.226 19.226 0 0 1 5.435-.784c8.19 0 14.202 3.08 17.064 8.391h41.4c5.634 0 10.203 4.575 10.203 10.222 0 5.647-4.567 10.223-10.203 10.223l.006-.005z"
      fill="#84430D"
    />
    <path
      d="M195.879 40.445h-41.4c-2.865-5.312-8.877-8.391-17.065-8.391-1.86 0-3.688.27-5.435.784 1.47-4.161 2.329-8.224 2.329-11.634 0-12.187-7.111-16.51-13.2-16.51-6.09 0-10.011 3.367-12.951 7.334-2.505-5.276-7.19-7.334-11.39-7.334-5.025 0-12.086 2.618-17.193 15.092-1.687 4.121-2.867 8.535-3.693 12.596-1.636-1.047-3.517-1.9-5.646-2.545a34.222 34.222 0 0 0-4.287-.984c3.602-2.028 6.22-5.652 6.22-10.78 0-7.22-5.711-12.464-13.583-12.464a18.62 18.62 0 0 0-8.39 1.957c-4.865-2-10.34-3.637-17.064-3.637-7.894 0-14.617 2.258-19.442 6.528-4.675 4.136-7.247 9.907-7.247 16.245 0 5.614 1.98 10.868 5.575 14.795.42.459.858.895 1.312 1.306a18.04 18.04 0 0 0-4.612 4.02c-3.089 3.764-4.79 8.74-4.79 14.011 0 6.74 2.696 12.81 7.594 17.095 4.521 3.955 10.598 6.134 17.115 6.134 11.785 0 21.091-5.74 26.022-15.524 2.895 2.318 6.578 3.534 10.787 3.534 4.966 0 9.527-1.58 13.353-4.55 3.557 3.98 8.113 4.55 10.424 4.55 4.6 0 8.929-2.048 12.815-6.006 2.666 3.87 6.628 6.006 11.529 6.006 3.28 0 7.531-.928 11.395-4.646 2.825 1.828 6.268 2.817 10.06 2.817.112 0 .226-.005.341-.007h21.18c5.342 0 9.722-4.114 10.162-9.353h29.18c5.633 0 10.202-4.575 10.202-10.222 0-5.647-4.566-10.222-10.202-10.222l-.005.005z"
      fill="#E86625"
    />
    <path
      d="M33.126 9.294c7.01 0 12.498 2.06 17.452 4.275 2.364-1.68 5.03-2.595 8.002-2.595 4.803 0 8.232 2.749 8.232 7.102 0 5.345-4.572 7.33-8.383 7.33H56.6c-.38 1.069-.684 2.749-.913 6.184-.04.557-.089 1.185-.146 1.869 8.97.106 18.788 1.034 21.851 8.67.116.286-.274.493-.448.238-4.06-5.95-12.032-5.279-21.927-3.473-.61 5.824-1.493 12.979-2.306 18.127-1.905 12.217-9.908 21.685-24.082 21.685-10.441 0-19.357-6.87-19.357-17.867 0-8.018 5.107-15.196 13.26-15.196 5.868 0 8.458 3.74 8.458 5.88 0 .99-.533 1.144-.913 1.22-1.372.305-2.286 1.301-2.286 2.673 0 1.373.916 2.366 2.668 2.366 4.405 0 6.024-7.266 7.74-15.917-3.71.484-7.513.784-11.342.706-8.976 0-15.068-7.238-15.068-15.867 0-9.392 7.393-17.41 21.338-17.41zm87.984.767c4.647 0 7.849 3.617 7.849 11.148 0 7.53-5.375 19.935-12.153 26.984-.328.338-.38.87-.104 1.249.396.544.95.86 1.662.86 1.387 0 2.915-1.138 4.05-2.212a11.526 11.526 0 0 0 2.208-2.843c2.51-4.6 7.252-7.829 12.792-7.829 4.428.006 13.593.886 13.593 10.977 0 10.09-6.875 16.497-15.987 16.497-5.062 0-8.646-2.25-10.597-5.566-2.22 4.005-5.656 7.395-10.857 7.395-5.57 0-9.072-4.268-9.827-12.223-3.247 6.089-8.194 12.223-14.517 12.223-4.609 0-7.8-2.923-9.193-8.437-3.023 4.691-7.916 8.437-14.582 8.437-7.62 0-11.506-5.345-11.506-11.607 0-7.789 5.943-15.347 14.404-15.347 5.182 0 8.535 2.746 8.535 6.794 0 4.505-4.266 6.795-8.153 6.795a9.49 9.49 0 0 1-1.397-.104c-.385-.058-.554.475-.201.639.662.31 1.46.459 2.283.459 4.158 0 6.527-2.391 8.226-4.82a11.062 11.062 0 0 0 1.938-5.365c1.259-14.101 6.218-34.104 17.193-34.104 4.647 0 7.848 3.632 7.848 11.148s-5.354 19.89-12.115 26.946c-.365.381-.393.979-.06 1.39.39.482.918.757 1.583.757 1.558 0 4.858-2.858 7.26-5.156 1.777-1.702 2.912-3.957 3.267-6.396 1.933-13.297 6.93-28.69 16.558-28.69zm17.024 34.003c-1.999 0-3.197 2.003-3.197 3.844 0 1.443.717 2.724 2.477 2.724 2.157 0 3.277-1.841 3.277-3.844 0-.721-.32-2.724-2.557-2.724zm-69.568 2.8c-.654 0-1.981.673-2.633 1.927a.507.507 0 0 0 .436.744h.216c1.827 0 2.82-1.22 2.82-1.985 0-.38-.305-.686-.839-.686zm26.368-21.078c-.534 0-1.221.765-1.83 2.674-.909 2.59-1.498 6.532-1.765 10.23-.017.27.34.386.48.153 2.103-3.417 4.106-8.552 4.106-11.223 0-1.07-.307-1.834-.991-1.834zm24.344 0c-.534 0-1.221.765-1.83 2.674-.907 2.583-1.493 6.507-1.762 10.194-.018.283.35.401.495.162 2.097-3.42 4.088-8.533 4.088-11.196 0-1.07-.307-1.834-.991-1.834zm-76.546-1.601c-6.326.305-10.87 2.676-8.84 6.794.795 1.403 2.668 2.008 6.101 2.27.74-3.172 1.609-6.282 2.739-9.064zM158.017 49.782c-.606-.295-1.087-.53-1.087-.87 0-.194.063-.454.617-.454h2.242c.315 0 .464-.146.464-.464v-.111c0-.315-.146-.464-.464-.464h-2.242c-1.12 0-1.667.487-1.667 1.49 0 .944.82 1.357 1.692 1.794.992.496 2.014 1.011 2.014 2.358 0 1.064-.7 1.674-1.919 1.674h-2.502c-.1 0-.11-.012-.11-.11v-.109c0-.1.012-.11.11-.11h2.407c1.12 0 1.666-.488 1.666-1.491 0-.944-.82-1.357-1.691-1.794-.992-.497-2.014-1.011-2.014-2.358 0-1.064.7-1.675 1.918-1.675h2.338c.315 0 .464-.146.464-.464v-.108c0-.315-.146-.464-.464-.464h-2.338c-1.848 0-2.953 1.014-2.953 2.711 0 2.013 1.506 2.747 2.606 3.281.606.295 1.087.53 1.087.87 0 .195-.063.454-.617.454h-2.693c-.106 0-.176.071-.176.177s.07.177.176.177h2.693c.625 0 .97-.288.97-.807 0-.563-.61-.858-1.317-1.201-1.06-.512-2.376-1.148-2.376-2.953 0-1.478.971-2.359 2.6-2.359h2.338c.101 0 .111.013.111.111v.109c0 .1-.012.11-.11.11h-2.34c-1.419 0-2.267.757-2.267 2.026 0 1.574 1.163 2.144 2.19 2.648.813.399 1.518.744 1.518 1.503 0 .8-.393 1.14-1.314 1.14h-2.407c-.314 0-.463.147-.463.465v.108c0 .315.146.464.463.464h2.502c1.42 0 2.268-.757 2.268-2.025 0-1.574-1.163-2.144-2.187-2.648-.813-.399-1.518-.744-1.518-1.504 0-.8.393-1.14 1.314-1.14h2.243c.1 0 .11.013.11.111v.111c0 .101-.012.111-.11.111h-2.243c-.624 0-.969.288-.969.807 0 .563.61.858 1.316 1.2 1.06.513 2.377 1.148 2.377 2.954 0 1.478-.972 2.359-2.6 2.359h-2.79c-.105 0-.176.07-.176.176 0 .106.07.177.176.177h2.79c1.847 0 2.952-1.014 2.952-2.712 0-2.012-1.505-2.746-2.605-3.281h-.003zm9.118-3.733H161.5c-.43 0-.667.237-.667.669v1.069c0 .431.237.668.667.668h1.601l.015.015v6.838c0 .315.146.464.463.464h.109c.314 0 .463-.146.463-.464v-7.385c0-.345-.161-.504-.504-.504h-1.628c-.126 0-.154-.025-.154-.154v-.028c0-.126.025-.154.154-.154h4.596c.126 0 .154.026.154.154v.028c0 .126-.026.154-.154.154h-1.629c-.342 0-.503.161-.503.504v7.675c0 .106.07.177.176.177.106 0 .176-.071.176-.177v-7.675c0-.126.026-.154.154-.154h1.629c.344 0 .503-.161.503-.504v-.028c0-.345-.161-.504-.503-.504h-4.597c-.345 0-.503.161-.503.504v.028c0 .345.16.504.503.504h1.629c.126 0 .153.026.153.154v7.385c0 .1-.012.111-.11.111h-.109c-.1 0-.11-.013-.11-.111V48.47c0-.247-.121-.368-.368-.368h-1.6c-.237 0-.318-.08-.318-.318v-1.069c0-.237.08-.318.317-.318h5.634c.236 0 .317.081.317.318v1.07c0 .237-.08.317-.317.317h-1.601c-.247 0-.368.121-.368.368v7.126c0 .105.07.176.176.176.106 0 .177-.07.177-.176V48.47l.015-.015h1.6c.431 0 .668-.237.668-.668v-1.07c0-.43-.237-.668-.667-.668h-.005zm7.783 0c-.106 0-.176.07-.176.177v5.92c0 2.264-1.005 3.414-2.983 3.414-1.979 0-2.983-1.147-2.983-3.415v-5.632c0-.1.012-.11.11-.11h.109c.1 0 .11.012.11.11v5.632c0 2.015.917 3.082 2.651 3.082 1.735 0 2.65-1.064 2.65-3.082v-5.632c0-.315-.145-.464-.462-.464h-.109c-.314 0-.463.147-.463.464v5.632c0 1.357-.544 2.043-1.616 2.043s-1.616-.688-1.616-2.043v-5.632c0-.1.013-.11.11-.11h.112c.1 0 .11.012.11.11v5.632c0 1.415.698 1.71 1.284 1.71.587 0 1.284-.297 1.284-1.71v-5.92c0-.105-.07-.176-.176-.176-.106 0-.176.07-.176.177v5.92c0 .9-.315 1.359-.932 1.359s-.931-.457-.931-1.36v-5.632c0-.315-.146-.464-.463-.464h-.111c-.315 0-.463.147-.463.464v5.632c0 1.98 1.07 2.396 1.966 2.396 1.626 0 1.966-1.304 1.966-2.396v-5.632c0-.1.012-.11.11-.11h.109c.1 0 .11.012.11.11v5.632c0 1.811-.772 2.73-2.3 2.73-1.528 0-2.301-.919-2.301-2.73v-5.632c0-.315-.146-.464-.463-.464h-.109c-.314 0-.463.147-.463.464v5.632c0 2.464 1.153 3.766 3.336 3.766 2.182 0 3.335-1.302 3.335-3.766v-5.92c0-.105-.07-.176-.176-.176h.01zm4.458 0h-2.585c-.43 0-.667.237-.667.669v8.593c0 .315.146.464.463.464h.11c.315 0 .464-.147.464-.464V47.24c0-.126.025-.154.153-.154h2.064c1.71 0 2.616 1.024 2.616 2.96v1.728c0 1.938-.904 2.961-2.616 2.961h-.055c-.1 0-.11-.012-.11-.11v-.109c0-.1.012-.11.11-.11h.055c1.473 0 2.28-.934 2.28-2.629v-1.728c0-1.695-.81-2.628-2.28-2.628h-1.382c-.345 0-.503.162-.503.505v7.385c0 .315.146.464.463.464h.11c.315 0 .464-.147.464-.464v-6.838l.015-.015h.833c.838 0 1.246.52 1.246 1.591v1.728c0 1.072-.408 1.591-1.246 1.591h-.342c-.106 0-.176.071-.176.177s.07.177.176.177h.342c1.06 0 1.599-.654 1.599-1.945v-1.728c0-1.288-.539-1.944-1.599-1.944h-.833c-.247 0-.367.12-.367.368v6.838c0 .1-.013.11-.111.11h-.111c-.1 0-.11-.012-.11-.11v-7.385c0-.126.024-.154.153-.154h1.382c1.263 0 1.93.787 1.93 2.277v1.728c0 1.49-.667 2.278-1.93 2.278h-.056c-.314 0-.463.146-.463.464v.108c0 .315.146.464.463.464h.056c1.913 0 2.965-1.178 2.965-3.314v-1.728c0-2.136-1.052-3.314-2.965-3.314h-2.064c-.345 0-.504.162-.504.505v8.07c0 .101-.012.112-.11.112h-.111c-.101 0-.111-.013-.111-.111v-8.593c0-.237.08-.318.317-.318h2.585c2.127 0 3.298 1.296 3.298 3.647v1.727c0 2.354-1.17 3.648-3.298 3.648h-.342c-.106 0-.176.07-.176.176 0 .106.07.177.176.177h.342c2.354 0 3.65-1.42 3.65-4v-1.728c0-2.578-1.296-4-3.65-4l-.007.002zm6.348 0h-1.067c-.43 0-.667.237-.667.669v8.593c0 .315.146.464.463.464h.11c.315 0 .464-.147.464-.464V47.24c0-.126.025-.154.153-.154h.028c.126 0 .154.025.154.154v8.358c0 .106.07.177.176.177.106 0 .176-.071.176-.177V47.24c0-.346-.161-.505-.503-.505h-.028c-.345 0-.504.162-.504.505v8.07c0 .101-.012.112-.11.112h-.111c-.1 0-.11-.013-.11-.111v-8.593c0-.237.08-.318.316-.318h1.068c.236 0 .317.08.317.318v8.88c0 .106.07.177.176.177.106 0 .176-.071.176-.177v-8.88c0-.432-.236-.669-.667-.669h-.01zm5.072-.136c-2.2 0-3.511 1.496-3.511 4v.727c0 .105.07.176.176.176.106 0 .176-.07.176-.176v-.727c0-2.285 1.183-3.647 3.162-3.647 1.978 0 3.161 1.365 3.161 3.647v.439c0 .1-.012.111-.11.111h-.111c-.1 0-.11-.013-.11-.111v-.439c0-2.076-1.058-3.314-2.83-3.314s-2.83 1.238-2.83 3.314v.439c0 .315.146.464.464.464h.108c.315 0 .463-.146.463-.464v-.439c0-1.425.67-2.277 1.795-2.277s1.795.852 1.795 2.277v.439c0 .1-.013.111-.111.111h-.108c-.101 0-.111-.013-.111-.111v-.439c0-1.218-.546-1.944-1.46-1.944-.914 0-1.46.726-1.46 1.944v.727c0 .105.07.176.176.176.106 0 .176-.07.176-.176v-.727c0-.996.416-1.591 1.11-1.591.695 0 1.11.595 1.11 1.591v.439c0 .315.146.464.464.464h.108c.314 0 .463-.146.463-.464v-.439c0-1.647-.803-2.628-2.145-2.628-1.341 0-2.144.984-2.144 2.628v.439c0 .1-.013.111-.111.111h-.108c-.101 0-.111-.013-.111-.111v-.439c0-1.854.926-2.96 2.477-2.96 1.55 0 2.477 1.106 2.477 2.96v.439c0 .315.146.464.463.464h.11c.315 0 .464-.146.464-.464v-.439c0-2.504-1.314-4-3.512-4h-.015zm3.338 5.112c-.106 0-.176.071-.176.177v.714c0 2.282-1.18 3.647-3.162 3.647-1.98 0-3.161-1.365-3.161-3.647v-.424c0-.1.012-.111.11-.111h.109c.1 0 .11.013.11.111v.424c0 2.075 1.058 3.314 2.83 3.314s2.83-1.239 2.83-3.314v-.424c0-.315-.147-.464-.464-.464h-.11c-.315 0-.464.146-.464.464v.424c0 1.425-.67 2.277-1.795 2.277s-1.795-.852-1.795-2.277v-.424c0-.1.013-.111.111-.111h.111c.1 0 .11.013.11.111v.424c0 1.215.547 1.944 1.46 1.944.914 0 1.46-.726 1.46-1.944v-.714c0-.106-.07-.177-.176-.177-.105 0-.176.071-.176.177v.714c0 .996-.415 1.591-1.11 1.591-.695 0-1.11-.595-1.11-1.591v-.424c0-.315-.146-.464-.463-.464h-.11c-.315 0-.464.146-.464.464v.424c0 1.647.803 2.628 2.145 2.628 1.341 0 2.144-.984 2.144-2.628v-.424c0-.1.013-.111.111-.111h.11c.102 0 .112.013.112.111v.424c0 1.854-.927 2.96-2.477 2.96-1.55 0-2.477-1.106-2.477-2.96v-.424c0-.315-.146-.464-.463-.464h-.109c-.314 0-.463.146-.463.464v.424c0 2.504 1.314 4 3.512 4 2.197 0 3.511-1.496 3.511-4v-.714c0-.106-.07-.177-.176-.177h.015zm4.244-1.243c-.607-.295-1.087-.53-1.087-.87 0-.194.063-.454.616-.454h2.243c.315 0 .463-.146.463-.464v-.111c0-.315-.146-.464-.463-.464h-2.243c-1.12 0-1.666.487-1.666 1.49 0 .944.82 1.357 1.692 1.794.991.496 2.013 1.011 2.013 2.358 0 1.064-.7 1.674-1.918 1.674h-2.502c-.1 0-.11-.012-.11-.11v-.109c0-.1.01-.11.11-.11h2.407c1.12 0 1.666-.488 1.666-1.491 0-.944-.82-1.357-1.692-1.794-.991-.497-2.013-1.011-2.013-2.358 0-1.064.7-1.675 1.918-1.675h2.338c.315 0 .463-.146.463-.464v-.108c0-.315-.146-.464-.463-.464h-2.338c-1.848 0-2.953 1.014-2.953 2.711 0 2.013 1.505 2.747 2.605 3.281.607.295 1.088.53 1.088.87 0 .195-.063.454-.617.454h-2.693c-.106 0-.177.071-.177.177s.07.177.177.177h2.693c.624 0 .97-.288.97-.807 0-.563-.61-.858-1.317-1.201-1.058-.512-2.377-1.148-2.377-2.953 0-1.478.972-2.359 2.6-2.359h2.34c.1 0 .11.013.11.111v.109c0 .1-.013.11-.11.11h-2.34c-1.419 0-2.267.757-2.267 2.026 0 1.574 1.163 2.144 2.19 2.648.813.399 1.518.744 1.518 1.503 0 .8-.393 1.14-1.314 1.14h-2.407c-.315 0-.463.147-.463.465v.108c0 .315.146.464.463.464h2.502c1.42 0 2.268-.757 2.268-2.025 0-1.574-1.163-2.144-2.19-2.648-.813-.399-1.518-.744-1.518-1.504 0-.8.393-1.14 1.314-1.14h2.243c.1 0 .111.013.111.111v.111c0 .101-.013.111-.11.111h-2.244c-.624 0-.969.288-.969.807 0 .563.61.858 1.317 1.2 1.06.513 2.376 1.148 2.376 2.954 0 1.478-.972 2.359-2.6 2.359h-2.79c-.105 0-.176.07-.176.176 0 .106.07.177.177.177h2.789c1.847 0 2.952-1.014 2.952-2.712 0-2.012-1.505-2.746-2.605-3.281z"
      fill="#FFF4C5"
    />
    <path
      d="M157.365 59.734c1.012-.676 2.273.401 1.77 1.509-.27.595-.02 1.296.564 1.586 1.09.54.79 2.172-.42 2.29a1.21 1.21 0 0 0-1.09 1.281c.077 1.216-1.483 1.773-2.188.782a1.205 1.205 0 0 0-1.654-.302c-1.012.676-2.273-.401-1.77-1.509.27-.595.02-1.296-.563-1.586-1.09-.54-.79-2.172.42-2.29a1.21 1.21 0 0 0 1.09-1.281c-.078-1.216 1.483-1.773 2.188-.782.377.532 1.11.666 1.653.302z"
      fill="#B12E21"
    />
  </g>
</svg>