<svg
  width="34"
  height="30"
  viewBox="0 0 34 30"
  xmlns="http://www.w3.org/2000/svg"
>
  <g fill="none" fillRule="evenodd">
    <path
      d="M34 5.26C34 2.36 31.65 0 28.764 0H5.236C2.35 0 0 2.36 0 5.26v3.867a5.26 5.26 0 0 0 4.52 5.21v5.635c0 2.9 2.349 5.26 5.236 5.26h4.52c.078 0 .156-.001.233-.005C14.755 27.9 17 30 19.724 30h4.52c2.887 0 5.236-2.36 5.236-5.26v-5.635a5.26 5.26 0 0 0 4.52-5.21v-3.868c0-.149-.007-.3-.02-.45.013-.15.02-.3.02-.45V5.26z"
      fill="#F2F2F2"
    />
    <path
      d="M32.329 5.26c0-1.975-1.6-3.581-3.565-3.581H5.236c-1.965 0-3.565 1.606-3.565 3.58v3.868c0 1.975 1.6 3.581 3.565 3.581h.955v7.264c0 1.975 1.6 3.581 3.565 3.581h4.52c.69 0 1.336-.198 1.882-.54v1.727c0 1.975 1.6 3.581 3.566 3.581h4.52c1.965 0 3.565-1.606 3.565-3.58v-7.265h.955c1.966 0 3.565-1.607 3.565-3.581v-3.868c0-.149-.01-.3-.03-.45.02-.15.03-.3.03-.45V5.26z"
      fill="#244C93"
    />
    <path
      d="M30.546 5.26c0-.99-.798-1.79-1.782-1.79H5.236c-.984 0-1.782.8-1.782 1.79v3.867c0 .989.798 1.79 1.782 1.79h2.738v9.055c0 .99.798 1.79 1.782 1.79h4.52c.985 0 1.783-.8 1.783-1.79v-4.287h1.882v9.055c0 .989.798 1.79 1.783 1.79h4.52c.984 0 1.782-.801 1.782-1.79v-9.055h2.738c.984 0 1.782-.801 1.782-1.79v-3.868c0-.156-.022-.306-.059-.45.037-.144.06-.294.06-.45V5.26z"
      fill="#4468B7"
    />
    <path
      d="M28.764 10.027v3.868h-4.52V24.74h-4.52V13.895h-4.597v-3.868h13.637zm0-4.767v3.867H14.276v10.845h-4.52V9.127h-4.52V5.26h23.528z"
      fill="#FFF"
    />
  </g>
</svg>