<svg
  width="40"
  height="40"
  viewBox="0 0 40 40"
  xmlns="http://www.w3.org/2000/svg"
>
  <path
    d="M20 0c11.046 0 20 8.954 20 20s-8.954 20-20 20S0 31.046 0 20C0 13.834 2.79 8.319 7.178 4.65c-.363 1.738-.568 5.952.958 8.232 1.415 2.114 2.755 2.026 3.79 1.474v8.983c0 1.613.327 3.012.982 4.197a6.832 6.832 0 0 0 2.746 2.746c1.176.645 2.551.968 4.126.968 1.233 0 2.333-.19 3.3-.57a6.57 6.57 0 0 0 2.448-1.636 7.495 7.495 0 0 0 1.536-2.504c.36-.958.541-2.024.541-3.201 0-1.46-.299-2.736-.896-3.827a6.769 6.769 0 0 0-2.476-2.59c-1.053-.635-2.262-.953-3.628-.953-.588 0-1.143.076-1.665.228a4.9 4.9 0 0 0-1.422.668 4.28 4.28 0 0 0-1.067 1.039h-.086v-7.726c0-.61-.245-1.338-.846-2.236-1.565-2.34-5.708-3.773-7.377-4.05A19.912 19.912 0 0 1 20 0zm-.22 19.839c.683 0 1.27.17 1.764.512.493.341.877.792 1.153 1.352.274.56.412 1.2.412 1.92 0 .722-.133 1.371-.398 1.95a3.291 3.291 0 0 1-1.153 1.38c-.503.341-1.095.512-1.778.512s-1.276-.17-1.779-.512a3.39 3.39 0 0 1-1.166-1.38c-.276-.579-.413-1.228-.413-1.95 0-.72.137-1.36.413-1.92.274-.56.664-1.01 1.166-1.352.503-.341 1.096-.512 1.779-.512z"
    fill="#EBEBEB"
    fillRule="evenodd"
  />
</svg>