<svg viewBox="0 0 280 119" xmlns="http://www.w3.org/2000/svg">
  <path
    d="M0 78.877h38.825V40.123H0v38.754zm80.392 0h38.825V40.123H80.392v38.754zm0 1.369c0 21.404 17.383 38.754 38.825 38.754V80.246H80.392zm0-41.491h38.825V0C97.775 0 80.392 17.35 80.392 38.755m40.195 40.122h38.825V40.123h-38.825v38.754zM160.783 119c21.443 0 38.825-17.351 38.825-38.754h-38.825V119zm0-40.123h38.825V40.123h-38.825v38.754zm0-78.877v38.755h38.825C199.608 17.352 182.226 0 160.783 0M0 38.755h38.825V0C17.383 0 0 17.35 0 38.755M40.196 0v38.755H79.02C79.02 17.352 61.639 0 40.196 0m0 78.877c21.443 0 38.825-17.35 38.825-38.754H40.196v38.754zm160.783 0h38.825V40.123h-38.825v38.754zM0 80.246C0 101.65 17.383 119 38.825 119V80.246H0zm200.979 0c0 21.404 17.383 38.754 38.825 38.754V80.246h-38.825zm0-41.491h38.825V0c-21.442 0-38.825 17.35-38.825 38.755M241.175 0v38.755H280C280 17.352 262.618 0 241.175 0m0 78.877c21.443 0 38.825-17.35 38.825-38.754h-38.825v38.754z"
    fill="#F6F6F6"
    fillRule="evenodd"
  />
</svg>