 <svg
  width="50"
  height="50"
  viewBox="0 0 50 50"
  xmlns="http://www.w3.org/2000/svg"
>
  <path
    d="m40.107 24.975 5.506-9.296.01 18.61-5.516-9.314zm-15.088 16.74-8.613-14.547 17.32-.012-8.707 14.559zM4.387 34.45l-.01-18.924 5.674 9.453-5.664 9.471zM25 8.273l8.738 14.559-17.37.012 8.632-14.571zM49.976.665a.245.245 0 0 0-.25-.246.24.24 0 0 0-.211.122L37.558 20.726 25.191.12a.246.246 0 0 0-.213-.12.245.245 0 0 0-.214.121L12.57 20.707.46.531a.24.24 0 0 0-.21-.12A.245.245 0 0 0 0 .656l.024 48.687c0 .152.125.245.25.245a.24.24 0 0 0 .211-.12l12.09-20.217 12.213 20.627c.048.081.131.122.214.122.083 0 .165-.04.213-.12l12.347-20.648 11.976 20.226a.24.24 0 0 0 .212.121c.125 0 .25-.093.25-.245L49.976.665z"
    fill="ffffff"
    fillRule="evenodd"
  />
</svg>