<svg
  width="99"
  height="90"
  viewBox="0 0 99 90"
  xmlns="http://www.w3.org/2000/svg"
>
  <path
    d="M61.01 42.302a2.583 2.583 0 0 1-2.271 1.35H49.507a2.867 2.867 0 0 1-2.82-2.865 2.867 2.867 0 0 1 2.87-2.864s10.097-.053 10.168-.005c1.012.807 1.514 1.848 1.514 3.067 0 .462-.08.906-.229 1.317m-4.86 8.654-6.625.021a3.225 3.225 0 0 1-2.981-3.213 3.225 3.225 0 0 1 3.228-3.222h9.326c.586.68.94 1.564.94 2.532a3.886 3.886 0 0 1-3.888 3.882m40.637 14.336c-.096-.166-.195-.33-.296-.491l.009-.005-32.573-56.32a16.38 16.38 0 0 0-2.763-3.657l-.07-.07a10.873 10.873 0 0 0-.166-.161 16.43 16.43 0 0 0-4.785-3.193A16.416 16.416 0 0 0 49.523 0h-.046c-2.23.001-4.483.454-6.62 1.396l-.063.027-.134.06a16.425 16.425 0 0 0-4.751 3.263l-.079.078a19.264 19.264 0 0 0-.212.216l-.02.02A16.38 16.38 0 0 0 35.07 8.48L23.404 28.653a2.256 2.256 0 0 0-.164 1.954c1.094 2.77 5.728 4.212 13.908 4.326a6.614 6.614 0 0 1 3.81-3.975v-.018a6.897 6.897 0 0 0 3.88-7.488l.007-.002a3.85 3.85 0 0 1-.044-.909 3.814 3.814 0 0 1 3.477-3.51 3.804 3.804 0 0 1 3.973 2.74l.007-.002c.01.042.018.084.026.127.037.15.066.304.085.461a14.513 14.513 0 0 1-1.047 8.249h6.746a3.886 3.886 0 0 1 3.822 4.6 2.584 2.584 0 0 1-2.434 1.714H49.5a3.44 3.44 0 0 1-3.226-4.477 3.876 3.876 0 0 0 1.129 5.28 3.876 3.876 0 0 0-.2 6.302 3.874 3.874 0 0 0-1.52 3.08 3.885 3.885 0 0 0 3.618 3.872h-5.913a6.59 6.59 0 0 1-5.076-2.377C16.443 48.922 1.729 59.39.083 71.863c-.632 6.25 2.366 12.583 8.169 15.928 7.891 4.548 17.982 1.849 22.538-6.029.096-.166.19-.333.279-.5l.008.004 1.486-2.569c.171-.267.349-.53.532-.787 3.64-5.12 9.625-8.46 16.392-8.46a20.063 20.063 0 0 1 15.785 7.65 20.074 20.074 0 0 1 1.664 2.46l.986 1.706.009-.005c.09.168.182.335.278.501 4.556 7.878 14.647 10.577 22.539 6.029 7.891-4.548 10.595-14.621 6.039-22.499"
    fill="#EBEBEB"
    fillRule="evenodd"
  />
</svg>